<svg width="119" height="25" viewBox="0 0 119 25" fill="none" xmlns="http://www.w3.org/2000/svg">
<path d="M5.04093 11.0097H11.7244V13.5086H5.04093V11.0097ZM5.27892 16.7214H12.835V19.2996H2.08593V5.41702H12.5772V7.99521H5.27892V16.7214ZM13.8841 19.2996V4.58406H16.9779V19.2996H13.8841ZM23.8554 19.4582C22.639 19.4582 21.5681 19.2203 20.6426 18.7443C19.7303 18.2683 19.0229 17.6205 18.5205 16.8007C18.0181 15.9678 17.7669 15.0224 17.7669 13.9647C17.7669 12.8938 18.0115 11.9484 18.5007 11.1287C19.0031 10.2958 19.684 9.6479 20.5434 9.18515C21.4028 8.70917 22.3746 8.47119 23.4587 8.47119C24.5032 8.47119 25.442 8.69595 26.2749 9.14548C27.1211 9.58179 27.7888 10.2164 28.278 11.0494C28.7672 11.8691 29.0118 12.8541 29.0118 14.0044C29.0118 14.1234 29.0052 14.2622 28.9919 14.4209C28.9787 14.5663 28.9655 14.7051 28.9523 14.8373H20.2856V13.0326H27.326L26.1361 13.5681C26.1361 13.0128 26.0237 12.5302 25.7989 12.1203C25.5742 11.7105 25.2635 11.3931 24.8668 11.1684C24.4702 10.9304 24.0074 10.8114 23.4786 10.8114C22.9497 10.8114 22.4803 10.9304 22.0705 11.1684C21.6738 11.3931 21.3631 11.7171 21.1384 12.1402C20.9136 12.55 20.8012 13.0392 20.8012 13.6077V14.0837C20.8012 14.6655 20.9268 15.1811 21.178 15.6306C21.4425 16.0669 21.806 16.4041 22.2688 16.6421C22.7448 16.8668 23.3001 16.9792 23.9347 16.9792C24.5032 16.9792 24.999 16.8933 25.4221 16.7214C25.8584 16.5495 26.2551 16.2917 26.6121 15.9479L28.2581 17.7328C27.7689 18.2881 27.1541 18.7178 26.4137 19.0219C25.6733 19.3128 24.8205 19.4582 23.8554 19.4582ZM34.9388 19.4582C33.7885 19.4582 32.7639 19.2269 31.8648 18.7641C30.9658 18.2881 30.2584 17.6337 29.7428 16.8007C29.2403 15.9678 28.9891 15.0224 28.9891 13.9647C28.9891 12.8938 29.2403 11.9484 29.7428 11.1287C30.2584 10.2958 30.9658 9.6479 31.8648 9.18515C32.7639 8.70917 33.7885 8.47119 34.9388 8.47119C36.0626 8.47119 37.041 8.70917 37.874 9.18515C38.7069 9.6479 39.3217 10.3156 39.7184 11.1882L37.3187 12.4773C37.041 11.9749 36.6907 11.6047 36.2676 11.3667C35.8577 11.1287 35.4082 11.0097 34.919 11.0097C34.3901 11.0097 33.9141 11.1287 33.4911 11.3667C33.068 11.6047 32.7308 11.9418 32.4796 12.3781C32.2416 12.8144 32.1226 13.3433 32.1226 13.9647C32.1226 14.5861 32.2416 15.115 32.4796 15.5513C32.7308 15.9876 33.068 16.3248 33.4911 16.5627C33.9141 16.8007 34.3901 16.9197 34.919 16.9197C35.4082 16.9197 35.8577 16.8073 36.2676 16.5826C36.6907 16.3446 37.041 15.9678 37.3187 15.4521L39.7184 16.7611C39.3217 17.6205 38.7069 18.2881 37.874 18.7641C37.041 19.2269 36.0626 19.4582 34.9388 19.4582ZM44.7287 19.4582C43.4726 19.4582 42.4942 19.1409 41.7935 18.5063C41.0927 17.8584 40.7424 16.8999 40.7424 15.6306V6.26981H43.8362V15.591C43.8362 16.0405 43.9552 16.3909 44.1932 16.6421C44.4312 16.8801 44.7551 16.9991 45.165 16.9991C45.6542 16.9991 46.0706 16.8668 46.4144 16.6024L47.2474 18.784C46.93 19.0087 46.5466 19.1806 46.0971 19.2996C45.6608 19.4054 45.2046 19.4582 44.7287 19.4582ZM39.0963 11.2477V8.86783H46.4937V11.2477H39.0963ZM47.695 19.2996V8.62984H50.65V11.6443L50.2335 10.7717C50.5508 10.0181 51.0598 9.44958 51.7606 9.06615C52.4613 8.66951 53.3141 8.47119 54.3189 8.47119V11.327C54.1867 11.3138 54.0677 11.3072 53.962 11.3072C53.8562 11.294 53.7438 11.2874 53.6248 11.2874C52.7786 11.2874 52.0911 11.532 51.5623 12.0212C51.0466 12.4971 50.7888 13.2441 50.7888 14.2622V19.2996H47.695ZM60.7169 19.2996V17.2172L60.5185 16.7611V13.0326C60.5185 12.3715 60.3136 11.8559 59.9037 11.4857C59.5071 11.1155 58.8923 10.9304 58.0593 10.9304C57.4908 10.9304 56.9289 11.0229 56.3736 11.208C55.8315 11.3799 55.3688 11.6179 54.9853 11.922L53.8747 9.76028C54.4565 9.35041 55.1572 9.0331 55.977 8.80833C56.7967 8.58357 57.6296 8.47119 58.4758 8.47119C60.1021 8.47119 61.3647 8.85461 62.2638 9.62145C63.1628 10.3883 63.6124 11.5848 63.6124 13.2111V19.2996H60.7169ZM57.4644 19.4582C56.6314 19.4582 55.9175 19.3194 55.3225 19.0418C54.7275 18.7509 54.2714 18.3609 53.9541 17.8717C53.6367 17.3825 53.4781 16.8338 53.4781 16.2256C53.4781 15.591 53.6301 15.0357 53.9342 14.5597C54.2515 14.0837 54.7474 13.7135 55.4217 13.4491C56.0959 13.1714 56.9752 13.0326 58.0593 13.0326H60.8953V14.8373H58.3965C57.6693 14.8373 57.1669 14.9563 56.8892 15.1943C56.6248 15.4323 56.4926 15.7298 56.4926 16.0868C56.4926 16.4834 56.6446 16.8007 56.9487 17.0387C57.266 17.2635 57.6957 17.3759 58.2378 17.3759C58.7535 17.3759 59.2162 17.2569 59.6261 17.0189C60.036 16.7677 60.3334 16.4041 60.5185 15.9281L60.9945 17.356C60.7697 18.0435 60.3599 18.5658 59.7649 18.9228C59.1699 19.2798 58.4031 19.4582 57.4644 19.4582ZM69.9029 19.5376C68.7923 19.5376 67.728 19.3921 66.7099 19.1013C65.6919 18.7972 64.8721 18.4071 64.2507 17.9312L65.3415 15.5116C65.9365 15.9347 66.6372 16.2851 67.4437 16.5627C68.2634 16.8272 69.0898 16.9594 69.9227 16.9594C70.5574 16.9594 71.0664 16.8999 71.4498 16.7809C71.8465 16.6487 72.1373 16.4702 72.3224 16.2454C72.5075 16.0207 72.6001 15.7628 72.6001 15.472C72.6001 15.1018 72.4547 14.8109 72.1638 14.5993C71.8729 14.3746 71.4895 14.1961 71.0135 14.0639C70.5375 13.9184 70.0087 13.7862 69.4269 13.6672C68.8584 13.535 68.2833 13.3764 67.7015 13.1913C67.133 13.0062 66.6108 12.7682 66.1348 12.4773C65.6588 12.1864 65.2688 11.803 64.9647 11.327C64.6738 10.8511 64.5284 10.2429 64.5284 9.50246C64.5284 8.70917 64.7399 7.9886 65.163 7.34075C65.5993 6.67967 66.2472 6.15742 67.1066 5.774C67.9792 5.37735 69.07 5.17903 70.3789 5.17903C71.2515 5.17903 72.1109 5.2848 72.9571 5.49635C73.8032 5.69467 74.5503 5.99876 75.1981 6.40863L74.2065 8.848C73.5586 8.4778 72.9108 8.20676 72.2629 8.03488C71.6151 7.84977 70.9805 7.75722 70.359 7.75722C69.7376 7.75722 69.2286 7.82994 68.832 7.97538C68.4353 8.12082 68.1511 8.31253 67.9792 8.55051C67.8073 8.77528 67.7214 9.03971 67.7214 9.3438C67.7214 9.70078 67.8668 9.99166 68.1577 10.2164C68.4485 10.428 68.832 10.5998 69.3079 10.7321C69.7839 10.8643 70.3062 10.9965 70.8747 11.1287C71.4564 11.2609 72.0316 11.413 72.6001 11.5848C73.1818 11.7567 73.7107 11.9881 74.1867 12.279C74.6626 12.5698 75.0461 12.9533 75.3369 13.4292C75.641 13.9052 75.7931 14.5068 75.7931 15.234C75.7931 16.014 75.5749 16.728 75.1386 17.3759C74.7023 18.0237 74.0478 18.546 73.1752 18.9426C72.3158 19.3393 71.2251 19.5376 69.9029 19.5376ZM82.9663 8.47119C83.8125 8.47119 84.5661 8.64306 85.2272 8.98682C85.9015 9.31736 86.4303 9.833 86.8138 10.5337C87.1972 11.2213 87.3889 12.1071 87.3889 13.1913V19.2996H84.2951V13.6672C84.2951 12.8078 84.1034 12.1732 83.7199 11.7633C83.3497 11.3535 82.8209 11.1485 82.1334 11.1485C81.6442 11.1485 81.2012 11.2543 80.8046 11.4659C80.4212 11.6642 80.1171 11.9749 79.8923 12.398C79.6808 12.8211 79.575 13.3631 79.575 14.0242V19.2996H76.4812V4.58406H79.575V11.5848L78.8809 10.6924C79.2643 9.97844 79.813 9.42974 80.5269 9.04632C81.2409 8.6629 82.054 8.47119 82.9663 8.47119ZM94.0587 19.4582C92.9217 19.4582 91.9102 19.2203 91.0244 18.7443C90.1518 18.2683 89.4577 17.6205 88.942 16.8007C88.4396 15.9678 88.1884 15.0224 88.1884 13.9647C88.1884 12.8938 88.4396 11.9484 88.942 11.1287C89.4577 10.2958 90.1518 9.6479 91.0244 9.18515C91.9102 8.70917 92.9217 8.47119 94.0587 8.47119C95.1826 8.47119 96.1874 8.70917 97.0732 9.18515C97.9591 9.6479 98.6532 10.2891 99.1556 11.1089C99.658 11.9286 99.9092 12.8806 99.9092 13.9647C99.9092 15.0224 99.658 15.9678 99.1556 16.8007C98.6532 17.6205 97.9591 18.2683 97.0732 18.7443C96.1874 19.2203 95.1826 19.4582 94.0587 19.4582ZM94.0587 16.9197C94.5744 16.9197 95.0371 16.8007 95.447 16.5627C95.8569 16.3248 96.1808 15.9876 96.4188 15.5513C96.6568 15.1018 96.7758 14.5729 96.7758 13.9647C96.7758 13.3433 96.6568 12.8144 96.4188 12.3781C96.1808 11.9418 95.8569 11.6047 95.447 11.3667C95.0371 11.1287 94.5744 11.0097 94.0587 11.0097C93.5431 11.0097 93.0803 11.1287 92.6705 11.3667C92.2606 11.6047 91.9301 11.9418 91.6789 12.3781C91.4409 12.8144 91.3219 13.3433 91.3219 13.9647C91.3219 14.5729 91.4409 15.1018 91.6789 15.5513C91.9301 15.9876 92.2606 16.3248 92.6705 16.5627C93.0803 16.8007 93.5431 16.9197 94.0587 16.9197ZM106.995 19.4582C106.096 19.4582 105.309 19.2599 104.635 18.8633C103.96 18.4666 103.432 17.8651 103.048 17.0585C102.678 16.2388 102.493 15.2075 102.493 13.9647C102.493 12.7087 102.671 11.6774 103.028 10.8709C103.385 10.0644 103.901 9.4628 104.575 9.06615C105.25 8.66951 106.056 8.47119 106.995 8.47119C108 8.47119 108.899 8.70256 109.692 9.16531C110.498 9.61484 111.133 10.2495 111.596 11.0692C112.072 11.8889 112.31 12.8541 112.31 13.9647C112.31 15.0885 112.072 16.0603 111.596 16.8801C111.133 17.6998 110.498 18.3344 109.692 18.784C108.899 19.2335 108 19.4582 106.995 19.4582ZM100.688 23.147V8.62984H103.643V10.8114L103.584 13.9845L103.782 17.1379V23.147H100.688ZM106.459 16.9197C106.975 16.9197 107.431 16.8007 107.828 16.5627C108.238 16.3248 108.562 15.9876 108.8 15.5513C109.051 15.1018 109.176 14.5729 109.176 13.9647C109.176 13.3433 109.051 12.8144 108.8 12.3781C108.562 11.9418 108.238 11.6047 107.828 11.3667C107.431 11.1287 106.975 11.0097 106.459 11.0097C105.944 11.0097 105.481 11.1287 105.071 11.3667C104.661 11.6047 104.337 11.9418 104.099 12.3781C103.861 12.8144 103.742 13.3433 103.742 13.9647C103.742 14.5729 103.861 15.1018 104.099 15.5513C104.337 15.9876 104.661 16.3248 105.071 16.5627C105.481 16.8007 105.944 16.9197 106.459 16.9197Z" fill="url(#paint0_linear_34_21)"/>
<circle cx="116.122" cy="19.2996" r="2.68211" fill="url(#paint1_linear_34_21)"/>
<defs>
<linearGradient id="paint0_linear_34_21" x1="202.836" y1="-22.2496" x2="182.758" y2="78.244" gradientUnits="userSpaceOnUse">
<stop offset="0.413393" stop-color="#574343"/>
<stop offset="1" stop-color="#FFCFF6"/>
</linearGradient>
<linearGradient id="paint1_linear_34_21" x1="123.048" y1="11.5775" x2="111.391" y2="23.9696" gradientUnits="userSpaceOnUse">
<stop offset="0.413393" stop-color="#574343"/>
<stop offset="1" stop-color="#FFCFF6"/>
</linearGradient>
</defs>
</svg>
